<?xml version="1.0" encoding="UTF-8" standalone="no"?>
<!-- Created with Inkscape (http://www.inkscape.org/) -->

<svg
   width="1920"
   height="1080"
   viewBox="0 0 1920 1080"
   version="1.1"
   id="svg1"
   sodipodi:docname="Sprite.svg"
   inkscape:export-filename="Sprite.png"
   inkscape:export-xdpi="96"
   inkscape:export-ydpi="96"
   inkscape:version="1.3.2 (091e20e, 2023-11-25, custom)"
   xmlns:inkscape="http://www.inkscape.org/namespaces/inkscape"
   xmlns:sodipodi="http://sodipodi.sourceforge.net/DTD/sodipodi-0.dtd"
   xmlns="http://www.w3.org/2000/svg"
   xmlns:svg="http://www.w3.org/2000/svg">
  <sodipodi:namedview
     id="namedview1"
     pagecolor="#ffffff"
     bordercolor="#000000"
     borderopacity="0.25"
     inkscape:showpageshadow="2"
     inkscape:pageopacity="0.0"
     inkscape:pagecheckerboard="0"
     inkscape:deskcolor="#d1d1d1"
     inkscape:document-units="px"
     inkscape:zoom="0.43347119"
     inkscape:cx="1114.2609"
     inkscape:cy="626.33921"
     inkscape:window-width="1920"
     inkscape:window-height="1177"
     inkscape:window-x="-8"
     inkscape:window-y="-8"
     inkscape:window-maximized="1"
     inkscape:current-layer="layer1" />
  <defs
     id="defs1">
    <filter
       inkscape:collect="always"
       style="color-interpolation-filters:sRGB"
       id="filter1"
       x="-0.027551019"
       y="-0.04897959"
       width="1.055102"
       height="1.0979592">
      <feGaussianBlur
         inkscape:collect="always"
         stdDeviation="22.040816"
         id="feGaussianBlur1" />
    </filter>
    <filter
       inkscape:collect="always"
       style="color-interpolation-filters:sRGB"
       id="filter2"
       x="-0.0041242582"
       y="-0.0073320145"
       width="1.0082485"
       height="1.014664">
      <feGaussianBlur
         inkscape:collect="always"
         stdDeviation="3.2994065"
         id="feGaussianBlur2" />
    </filter>
    <filter
       inkscape:collect="always"
       style="color-interpolation-filters:sRGB"
       id="filter9"
       x="-0.007316966"
       y="-0.022692409"
       width="1.0146339"
       height="1.0453848">
      <feGaussianBlur
         inkscape:collect="always"
         stdDeviation="1.5377913"
         id="feGaussianBlur9" />
    </filter>
  </defs>
  <g
     inkscape:label="Layer 1"
     inkscape:groupmode="layer"
     id="layer1">
    <path
       style="display:inline;opacity:0.961735;fill:#381900;fill-opacity:0.996078;stroke-linecap:round;stroke-linejoin:round;filter:url(#filter9)"
       d="m 712.10748,1011.5446 c 0,0 133.48551,-160.35528 245.61726,-159.94566 112.55946,0.41119 258.78566,162.63946 258.78566,162.63946 z"
       id="path9"
       sodipodi:nodetypes="cscc" />
    <path
       id="path1"
       style="fill:#381900;fill-opacity:1;stroke-width:0.952834;stroke-linecap:round;stroke-linejoin:round;filter:url(#filter1)"
       d="M 0,0 V 1080 H 1920 V 0 Z m 644.014,22.311544 c 113.01931,0.03055 223.49679,23.973317 317.50782,68.81055 93.44728,-44.56963 203.17778,-68.500386 315.51948,-68.81055 151.8151,-3.1e-5 297.4122,43.104879 404.7617,119.832156 107.3496,76.72727 174.1831,278.66777 174.1833,387.17661 -2e-4,108.50884 -50.5211,284.34909 -157.8706,361.07636 C 1590.7662,967.12394 1445.169,1010.2289 1293.354,1010.2288 1180.605,1009.9177 1060.7079,914.03894 967.05273,869.16797 873.39752,914.03894 773.0756,1009.9177 660.32666,1010.2288 508.5116,1010.2289 362.91447,967.12395 255.56493,890.39667 148.21539,813.6694 78.119345,637.82915 78.119141,529.32031 78.119345,420.81147 131.90273,218.87096 239.25227,142.14369 346.60181,65.416417 492.19894,22.31151 644.014,22.311544 Z"
       sodipodi:nodetypes="ccccccccscscccscsc" />
    <path
       id="rect1"
       style="opacity:0.82398;fill:#381900;fill-opacity:1;stroke-width:0.952834;stroke-linecap:round;stroke-linejoin:round;filter:url(#filter2)"
       d="M 0,0 V 1080 H 1920 V 0 Z m 644.014,22.311544 c 113.01931,0.03055 223.49679,23.973317 317.50782,68.81055 93.44728,-44.56963 203.17778,-68.500386 315.51948,-68.81055 151.8151,-3.1e-5 297.4122,43.104879 404.7617,119.832156 107.3496,76.72727 174.1831,278.66777 174.1833,387.17661 -2e-4,108.50884 -50.5211,284.34909 -157.8706,361.07636 C 1590.7662,967.12394 1445.169,1010.2289 1293.354,1010.2288 1180.605,1009.9177 1060.7079,914.03894 967.05273,869.16797 873.39752,914.03894 773.0756,1009.9177 660.32666,1010.2288 508.5116,1010.2289 362.91447,967.12395 255.56493,890.39667 148.21539,813.6694 78.119345,637.82915 78.119141,529.32031 78.119345,420.81147 131.90273,218.87096 239.25227,142.14369 346.60181,65.416417 492.19894,22.31151 644.014,22.311544 Z"
       sodipodi:nodetypes="ccccccccscscccscsc" />
    <g
       id="g3">
      <circle
         style="opacity:0.829082;fill:#090400;fill-opacity:1;stroke-linecap:round;stroke-linejoin:round"
         id="path2"
         cx="120"
         cy="100.95238"
         r="59.047619" />
      <circle
         style="opacity:0.829082;fill:#210d00;fill-opacity:1;stroke-width:0.693548;stroke-linecap:round;stroke-linejoin:round"
         id="circle2"
         cx="120"
         cy="100.95238"
         r="40.952381" />
      <rect
         style="opacity:0.829082;fill:#060200;fill-opacity:1;stroke-linecap:round;stroke-linejoin:round"
         id="rect2"
         width="14.285714"
         height="44.761906"
         x="97.282333"
         y="78.443916" />
      <rect
         style="opacity:0.829082;fill:#060200;fill-opacity:1;stroke-linecap:round;stroke-linejoin:round"
         id="rect3"
         width="14.285714"
         height="44.761906"
         x="127.75527"
         y="78.443916" />
    </g>
    <g
       id="g5"
       transform="translate(1675.5064)">
      <circle
         style="opacity:0.829082;fill:#090400;fill-opacity:1;stroke-linecap:round;stroke-linejoin:round"
         id="circle3"
         cx="120"
         cy="100.95238"
         r="59.047619" />
      <circle
         style="opacity:0.829082;fill:#210d00;fill-opacity:1;stroke-width:0.693548;stroke-linecap:round;stroke-linejoin:round"
         id="circle4"
         cx="120"
         cy="100.95238"
         r="40.952381" />
      <rect
         style="opacity:0.829082;fill:#060200;fill-opacity:1;stroke-linecap:round;stroke-linejoin:round"
         id="rect4"
         width="14.285714"
         height="44.761906"
         x="97.282333"
         y="78.443916" />
      <rect
         style="opacity:0.829082;fill:#060200;fill-opacity:1;stroke-linecap:round;stroke-linejoin:round"
         id="rect5"
         width="14.285714"
         height="44.761906"
         x="127.75527"
         y="78.443916" />
    </g>
    <g
       id="g7"
       transform="translate(1675.5064,835.05944)">
      <circle
         style="opacity:0.829082;fill:#090400;fill-opacity:1;stroke-linecap:round;stroke-linejoin:round"
         id="circle5"
         cx="120"
         cy="100.95238"
         r="59.047619" />
      <circle
         style="opacity:0.829082;fill:#210d00;fill-opacity:1;stroke-width:0.693548;stroke-linecap:round;stroke-linejoin:round"
         id="circle6"
         cx="120"
         cy="100.95238"
         r="40.952381" />
      <rect
         style="opacity:0.829082;fill:#060200;fill-opacity:1;stroke-linecap:round;stroke-linejoin:round"
         id="rect6"
         width="14.285714"
         height="44.761906"
         x="97.282333"
         y="78.443916" />
      <rect
         style="opacity:0.829082;fill:#060200;fill-opacity:1;stroke-linecap:round;stroke-linejoin:round"
         id="rect7"
         width="14.285714"
         height="44.761906"
         x="127.75527"
         y="78.443916" />
    </g>
    <g
       id="g9"
       transform="translate(18.856227,835.05944)">
      <circle
         style="opacity:0.829082;fill:#090400;fill-opacity:1;stroke-linecap:round;stroke-linejoin:round"
         id="circle7"
         cx="120"
         cy="100.95238"
         r="59.047619" />
      <circle
         style="opacity:0.829082;fill:#210d00;fill-opacity:1;stroke-width:0.693548;stroke-linecap:round;stroke-linejoin:round"
         id="circle8"
         cx="120"
         cy="100.95238"
         r="40.952381" />
      <rect
         style="opacity:0.829082;fill:#060200;fill-opacity:1;stroke-linecap:round;stroke-linejoin:round"
         id="rect8"
         width="14.285714"
         height="44.761906"
         x="97.282333"
         y="78.443916" />
      <rect
         style="opacity:0.829082;fill:#060200;fill-opacity:1;stroke-linecap:round;stroke-linejoin:round"
         id="rect9"
         width="14.285714"
         height="44.761906"
         x="127.75527"
         y="78.443916" />
    </g>
  </g>
</svg>
